File Name

Someones Knocking at the Door 2009 BRRip H264 LKRG-Wrath.mp4

File Size
Format : MPEG-4
Format profile : Base Media
Codec ID : isom
File size : 1.50 GiB
Duration : 1h 20mn
Overall bit rate : 2 669 Kbps

Video
ID : 1
Format : AVC
Format/Info : Advanced Video Codec
Format profile : High@L4.1
Format settings, CABAC : Yes
Format settings, ReFrames : 3 frames
Codec ID : avc1
Codec ID/Info : Advanced Video Coding
Duration : 1h 20mn
Bit rate mode : Variable
Bit rate : 2 092 Kbps
Maximum bit rate : 9 933 Kbps
Width : 1 280 pixels
Height : 544 pixels
Display aspect ratio : 2.35:1
Frame rate mode : Constant
Frame rate : 23.976 fps
Resolution : 24 bits
Colorimetry : 4:2:0
Scan type : Progressive
Bits/(Pixel*Frame) : 0.125
Stream size : 1.17 GiB (78%)

Audio #1
ID : 2
Format : AAC
Format/Info : Advanced Audio Codec
Format version : Version 4
Format profile : LC
Format settings, SBR : No
Codec ID : 40
Duration : 1h 20mn
Bit rate mode : Variable
Bit rate : 128 Kbps
Maximum bit rate : 137 Kbps
Channel(s) : 2 channels
Channel positions : L R
Sampling rate : 48.0 KHz
Resolution : 16 bits
Stream size : 73.5 MiB (5%)

Audio #2
ID : 3
Format : AAC
Format/Info : Advanced Audio Codec
Format version : Version 4
Format profile : LC
Format settings, SBR : No
Codec ID : 40
Duration : 1h 20mn
Bit rate mode : Variable
Bit rate : 448 Kbps
Maximum bit rate : 464 Kbps
Channel(s) : 6 channels
Channel positions : Front: L C R, Rear: L R, LFE
Sampling rate : 48.0 KHz
Resolution : 16 bits
Stream size : 257 MiB (17%)

Text
ID : 4
Format : Timed text
Codec ID : tx3g
Duration : 1h 20mn
Bit rate mode : Variable
Bit rate : 75 bps
Stream size : 44.2 KiB (0%)

English SRT : External

Language : English

 
http://www.imdb.com/title/tt1303902/

Release Date: ----

Genre: Comedy | Horror 

Plot: A totally wild trip, SOMEONES KNOCKING AT THE DOOR is a cult horror movie sensation featuring over the top gore, depraved sexual acts, freaky dream sequences, and hysterical moments of humor. The plot may evoke classic 70s horror: a group of drug-taking students find themselves being brutally slayed one by one by a pair of sex crazed serial killers on campus. But its in its execution where this film shines with originality: totally bizarre kills, whacked out hallucinations, hilarious dialogue between the cast led by Noah Segan (BRICK, DEADGIRL), plus a dark mystery slowly being uncovered, all set to the tunes of a kick-ass rock and roll soundtrack. SOMEONES KNOCKING is a refreshingly disturbing and funny horror movie that will blow your mind, but in a good way. 

Cast: 
Noah Segan ... Justin
Andrea Rueda ... Meg
Ezra Buzzington ... John Hopper
Elina Madison ... Wilma Hopper
Jon Budinoff ... Sebastian
Ricardo Gray ... Joe
Silvia Spross ... Annie
Timothy Muskatell ... Detective Young
Lew Temple ... Coroner Tom Collins
Vernon Wells ... Dr. Tolstoy
Jordan Lawson ... Ray
Mary Rings ... Ray's Mother
Joseph Pilato ... Dr. Ottie
Trent Haaga ... Officer Tyler
Sean Cain ... Officer O'Malley


Screenshots
 
http://postimg.com/image/17000/16470.jpg